<?xml version="1.0" encoding="UTF-8" standalone="no"?><!-- Generator: Gravit.io --><svg xmlns="http://www.w3.org/2000/svg" xmlns:xlink="http://www.w3.org/1999/xlink" style="isolation:isolate" viewBox="0 0 512 512" width="512pt" height="512pt"><defs><clipPath id="_clipPath_BcPOy8SVRXfFwpCDPUqKrD9qfsWUhn5U"><rect width="512" height="512"/></clipPath></defs><g clip-path="url(#_clipPath_BcPOy8SVRXfFwpCDPUqKrD9qfsWUhn5U)"><g><g><path d=" M 298.667 25.6 L 213.334 25.6 C 208.624 25.6 204.801 29.423 204.801 34.133 C 204.801 38.843 208.624 42.666 213.334 42.666 L 298.667 42.666 C 303.377 42.666 307.2 38.843 307.2 34.133 C 307.2 29.423 303.377 25.6 298.667 25.6 Z " fill="rgb(0,0,0)"/></g></g><g><g><path d=" M 358.4 25.6 L 349.867 25.6 C 345.157 25.6 341.334 29.423 341.334 34.133 C 341.334 38.843 345.157 42.666 349.867 42.666 L 358.4 42.666 C 363.11 42.666 366.933 38.843 366.933 34.133 C 366.933 29.423 363.11 25.6 358.4 25.6 Z " fill="rgb(0,0,0)"/></g></g><g><g><path d=" M 266.598 435.2 L 245.41 435.2 C 232.431 435.2 221.867 445.764 221.867 458.743 L 221.867 462.865 C 221.867 475.844 232.431 486.4 245.402 486.4 L 266.59 486.4 C 279.569 486.4 290.133 475.844 290.133 462.865 L 290.133 458.743 C 290.133 445.764 279.569 435.2 266.598 435.2 Z  M 273.067 462.865 C 273.067 466.432 270.166 469.333 266.599 469.333 L 245.41 469.333 C 241.835 469.333 238.933 466.432 238.933 462.865 L 238.933 458.743 C 238.933 455.168 241.834 452.266 245.41 452.266 L 266.59 452.266 C 270.166 452.266 273.067 455.167 273.067 458.743 L 273.067 462.865 L 273.067 462.865 Z " fill="rgb(0,0,0)"/></g></g><g><g><path d=" M 370.227 0 L 141.781 0 C 124.774 0 110.933 13.841 110.933 30.848 L 110.933 481.152 C 110.933 498.159 124.774 512 141.781 512 L 370.218 512 C 387.225 512 401.066 498.159 401.066 481.161 L 401.066 30.848 C 401.067 13.841 387.226 0 370.227 0 Z  M 384 481.152 C 384 488.747 377.822 494.933 370.227 494.933 L 141.781 494.933 C 134.178 494.933 128 488.746 128 481.16 L 128 30.848 C 128 23.253 134.178 17.067 141.781 17.067 L 370.218 17.067 C 377.821 17.067 383.999 23.254 383.999 30.848 L 383.999 481.152 L 384 481.152 Z " fill="rgb(0,0,0)"/></g></g><g><g><path d=" M 392.533 51.2 L 119.467 51.2 C 114.757 51.2 110.934 55.023 110.934 59.733 L 110.934 418.133 C 110.934 422.843 114.757 426.666 119.467 426.666 L 392.534 426.666 C 397.244 426.666 401.067 422.843 401.067 418.133 L 401.067 59.733 C 401.067 55.023 397.244 51.2 392.533 51.2 Z  M 384 409.6 L 128 409.6 L 128 68.267 L 384 68.267 L 384 409.6 Z " fill="rgb(0,0,0)"/><text transform="matrix(1,0,0,1,225.5,271.604)" style="font-family:'Ubuntu';font-weight:400;font-size:72px;font-style:normal;fill:#000000;stroke:#000000;stroke-width:5;">85</text></g></g><circle vector-effect="non-scaling-stroke" cx="259.9999999999999" cy="238.99999999999997" r="100" fill="none" stroke-width="5" stroke="rgb(0,0,0)" stroke-linejoin="miter" stroke-linecap="square" stroke-miterlimit="3"/></g></svg>